<svg width="57" height="32" viewBox="0 0 57 32" fill="none" xmlns="http://www.w3.org/2000/svg">
<path d="M56.9999 16.6315C56.4803 17.4113 56.0256 18.2418 55.4301 18.9574C52.2067 22.8296 48.948 26.6724 45.7002 30.5232C44.5878 31.8424 43.2075 32.2857 41.8325 31.7703C39.6809 30.9665 39.0529 28.4562 40.5686 26.6136C41.8867 25.0114 43.2399 23.4358 44.577 21.8495C46.2198 19.9001 47.8627 17.9507 49.5353 15.9639C48.136 14.3109 46.7611 12.6819 45.3808 11.0529C43.7894 9.17024 42.1817 7.30093 40.6065 5.40758C38.8554 3.30594 39.8838 0.432532 42.5335 0.0373054C43.811 -0.152297 44.8151 0.395146 45.619 1.35384C46.956 2.94275 48.3011 4.52366 49.6409 6.10724C51.6518 8.48394 53.6844 10.8446 55.6629 13.2454C56.188 13.8809 56.556 14.642 56.9972 15.3443C56.9999 15.7689 56.9999 16.2015 56.9999 16.6315Z" fill="#82ECBF"/>
<path d="M7.49183 16.0441C10.4392 19.5263 13.3677 22.9952 16.307 26.4535C17.0973 27.3828 17.4978 28.3949 17.1704 29.6073C16.5289 31.9706 13.5301 32.8278 11.8304 31.0493C10.2768 29.4257 8.88027 27.6578 7.42687 25.9434C5.28601 23.4225 3.15056 20.8963 1.01511 18.37C-0.335442 16.7704 -0.335442 15.275 1.01511 13.67C4.4524 9.5869 7.8951 5.50378 11.3378 1.42334C12.5693 -0.0347294 14.2257 -0.397911 15.6845 0.451293C17.4789 1.49811 17.8145 3.71191 16.4125 5.40231C15.1026 6.98588 13.7683 8.54543 12.4448 10.1157C10.8993 11.9503 9.35121 13.7848 7.80578 15.6221C7.69752 15.753 7.60279 15.8945 7.49183 16.0441Z" fill="#64EDA9"/>
<path d="M21.6404 28.7848C21.7108 28.4056 21.7513 28.0184 21.8542 27.6499C24.2035 19.2887 26.5554 10.9275 28.9155 2.56903C29.354 1.01216 30.5042 0.0641523 31.9739 0.002732C33.3326 -0.0533474 34.5911 0.758469 35.1053 2.01892C35.4301 2.81739 35.3598 3.61585 35.1297 4.42233C33.5464 10.0276 31.9631 15.6355 30.3852 21.2435C29.6165 23.9754 28.856 26.7099 28.0846 29.4391C27.7382 30.6675 26.9939 31.5434 25.7083 31.8612C24.4931 32.1603 23.4186 31.8505 22.5444 30.9559C21.9652 30.3577 21.6756 29.6287 21.6404 28.7848Z" fill="#F8CA1C"/>
</svg>
